<?xml version="1.0" encoding="utf-8"?>
<!-- Generator: Adobe Illustrator 19.1.0, SVG Export Plug-In . SVG Version: 6.00 Build 0)  -->
<svg version="1.1" id="Capa_1" xmlns="http://www.w3.org/2000/svg" xmlns:xlink="http://www.w3.org/1999/xlink" x="0px" y="0px"
	 viewBox="0 0 200 200" style="enable-background:new 0 0 200 200;" xml:space="preserve">
<style type="text/css">
	.st0{fill-rule:evenodd;clip-rule:evenodd;fill:url(#SVGID_1_);}
	.st1{fill-rule:evenodd;clip-rule:evenodd;fill:url(#SVGID_2_);}
</style>
<g>
	<g>
		<linearGradient id="SVGID_1_" gradientUnits="userSpaceOnUse" x1="-6.256104e-003" y1="98.9985" x2="-6.256104e-003" y2="100.9765">
			<stop  offset="2.000000e-002" style="stop-color:#004EBA;stop-opacity:0"/>
			<stop  offset="0.95" style="stop-color:#004EBA"/>
		</linearGradient>
		<path class="st0" d="M0,99c0,0.3,0,0.7,0,1s0,0.7,0,1V99z"/>
	</g>
	<g>
		<linearGradient id="SVGID_2_" gradientUnits="userSpaceOnUse" x1="149.493" y1="-1.251221e-002" x2="149.493" y2="199.9873">
			<stop  offset="2.000000e-002" style="stop-color:#004EBA;stop-opacity:0"/>
			<stop  offset="0.95" style="stop-color:#004EBA"/>
		</linearGradient>
		<path class="st1" d="M100,0c-0.3,0-0.7,0-1,0L100,0l0,5c52.5,0,95,42.5,95,95s-42.5,95-95,95v5c55.2,0,100-44.8,100-100
			C200,44.8,155.2,0,100,0z"/>
	</g>
</g>
</svg>
